<svg width="564" height="159" viewBox="0 0 564 159" fill="none" xmlns="http://www.w3.org/2000/svg">
<path d="M1077 2L1032 19L987 2L942 19L897 2L852 19L807 2L762 19L717 2L672 19L627 2L582 19L537 2L492 19L447 2L402 19L357 2L312 19L267 2L222 19L177 2L132 19L87 2L42 19L-3 2L-48 19L-93 2L-138 19L-183 2L-228 19L-273 2L-318 19L-363 2" stroke="#FAB60B" stroke-width="3" stroke-miterlimit="10"/>
<path d="M1077 20.1L1032 37.2L987 20.1L942 37.2L897 20.1L852 37.2L807 20.1L762 37.2L717 20.1L672 37.2L627 20.1L582 37.2L537 20.1L492 37.2L447 20.1L402 37.2L357 20.1L312 37.2L267 20.1L222 37.2L177 20.1L132 37.2L87 20.1L42 37.2L-3 20.1L-48 37.2L-93 20.1L-138 37.2L-183 20.1L-228 37.2L-273 20.1L-318 37.2L-363 20.1" stroke="#FAB60B" stroke-width="3" stroke-miterlimit="10"/>
<path d="M1077 38.3L1032 55.3L987 38.3L942 55.3L897 38.3L852 55.3L807 38.3L762 55.3L717 38.3L672 55.3L627 38.3L582 55.3L537 38.3L492 55.3L447 38.3L402 55.3L357 38.3L312 55.3L267 38.3L222 55.3L177 38.3L132 55.3L87 38.3L42 55.3L-3 38.3L-48 55.3L-93 38.3L-138 55.3L-183 38.3L-228 55.3L-273 38.3L-318 55.3L-363 38.3" stroke="#FAB60B" stroke-width="3" stroke-miterlimit="10"/>
<path d="M1077 56.5L1032 73.5L987 56.5L942 73.5L897 56.5L852 73.5L807 56.5L762 73.5L717 56.5L672 73.5L627 56.5L582 73.5L537 56.5L492 73.5L447 56.5L402 73.5L357 56.5L312 73.5L267 56.5L222 73.5L177 56.5L132 73.5L87 56.5L42 73.5L-3 56.5L-48 73.5L-93 56.5L-138 73.5L-183 56.5L-228 73.5L-273 56.5L-318 73.5L-363 56.5" stroke="#FAB60B" stroke-width="3" stroke-miterlimit="10"/>
<path d="M1077 74.6L1032 91.7L987 74.6L942 91.7L897 74.6L852 91.7L807 74.6L762 91.7L717 74.6L672 91.7L627 74.6L582 91.7L537 74.6L492 91.7L447 74.6L402 91.7L357 74.6L312 91.7L267 74.6L222 91.7L177 74.6L132 91.7L87 74.6L42 91.7L-3 74.6L-48 91.7L-93 74.6L-138 91.7L-183 74.6L-228 91.7L-273 74.6L-318 91.7L-363 74.6" stroke="#FAB60B" stroke-width="3" stroke-miterlimit="10"/>
<path d="M1077 92.8L1032 109.8L987 92.8L942 109.8L897 92.8L852 109.8L807 92.8L762 109.8L717 92.8L672 109.8L627 92.8L582 109.8L537 92.8L492 109.8L447 92.8L402 109.8L357 92.8L312 109.8L267 92.8L222 109.8L177 92.8L132 109.8L87 92.8L42 109.8L-3 92.8L-48 109.8L-93 92.8L-138 109.8L-183 92.8L-228 109.8L-273 92.8L-318 109.8L-363 92.8" stroke="#FAB60B" stroke-width="3" stroke-miterlimit="10"/>
<path d="M1077 111L1032 128L987 111L942 128L897 111L852 128L807 111L762 128L717 111L672 128L627 111L582 128L537 111L492 128L447 111L402 128L357 111L312 128L267 111L222 128L177 111L132 128L87 111L42 128L-3 111L-48 128L-93 111L-138 128L-183 111L-228 128L-273 111L-318 128L-363 111" stroke="#FAB60B" stroke-width="3" stroke-miterlimit="10"/>
<path d="M1077 129.1L1032 146.2L987 129.1L942 146.2L897 129.1L852 146.2L807 129.1L762 146.2L717 129.1L672 146.2L627 129.1L582 146.2L537 129.1L492 146.2L447 129.1L402 146.2L357 129.1L312 146.2L267 129.1L222 146.2L177 129.1L132 146.2L87 129.1L42 146.2L-3 129.1L-48 146.2L-93 129.1L-138 146.2L-183 129.1L-228 146.2L-273 129.1L-318 146.2L-363 129.1" stroke="#FAB60B" stroke-width="3" stroke-miterlimit="10"/>
<path d="M1077 147.3L1032 164.3L987 147.3L942 164.3L897 147.3L852 164.3L807 147.3L762 164.3L717 147.3L672 164.3L627 147.3L582 164.3L537 147.3L492 164.3L447 147.3L402 164.3L357 147.3L312 164.3L267 147.3L222 164.3L177 147.3L132 164.3L87 147.3L42 164.3L-3 147.3L-48 164.3L-93 147.3L-138 164.3L-183 147.3L-228 164.3L-273 147.3L-318 164.3L-363 147.3" stroke="#FAB60B" stroke-width="3" stroke-miterlimit="10"/>
</svg>
