<svg width="32" height="32" viewBox="0 0 32 32" fill="none" xmlns="http://www.w3.org/2000/svg">
<path opacity="0.4" d="M25.0785 12.028C24.4765 12.028 23.6791 12.0147 22.6863 12.0147C20.265 12.0147 18.2741 10.0107 18.2741 7.56669V3.27869C18.2741 2.94135 18.0048 2.66669 17.6708 2.66669H10.6182C7.32697 2.66669 4.66675 5.36802 4.66675 8.67869V23.0454C4.66675 26.5187 7.45371 29.3334 10.8929 29.3334H21.3951C24.6745 29.3334 27.3334 26.6494 27.3334 23.336V12.628C27.3334 12.2894 27.0654 12.016 26.7301 12.0174C26.1664 12.0214 25.4904 12.028 25.0785 12.028Z" fill="#03045E"/>
<path opacity="0.4" d="M21.4455 3.4231C21.0468 3.00843 20.3508 3.29377 20.3508 3.86843V7.38443C20.3508 8.8591 21.5655 10.0724 23.0402 10.0724C23.9695 10.0831 25.2602 10.0858 26.3562 10.0831C26.9175 10.0818 27.2028 9.4111 26.8135 9.00577C25.4068 7.5431 22.8882 4.92177 21.4455 3.4231Z" fill="#03045E"/>
<path fill-rule="evenodd" clip-rule="evenodd" d="M11.9654 15.1835H16.4787C17.0267 15.1835 17.4721 14.7395 17.4721 14.1915C17.4721 13.6435 17.0267 13.1981 16.4787 13.1981H11.9654C11.4174 13.1981 10.9734 13.6435 10.9734 14.1915C10.9734 14.7395 11.4174 15.1835 11.9654 15.1835ZM11.9655 21.8424H19.2242C19.7722 21.8424 20.2175 21.3984 20.2175 20.8504C20.2175 20.3024 19.7722 19.8571 19.2242 19.8571H11.9655C11.4175 19.8571 10.9735 20.3024 10.9735 20.8504C10.9735 21.3984 11.4175 21.8424 11.9655 21.8424Z" fill="#03045E"/>
</svg>
