<svg width="32" height="32" viewBox="0 0 32 32" fill="none" xmlns="http://www.w3.org/2000/svg">
<path d="M15.9319 19.3865C11.332 19.3865 7.45068 20.1382 7.45068 23.0392C7.45068 25.9414 11.357 26.6666 15.9319 26.6666C20.5319 26.6666 24.4132 25.915 24.4132 23.014C24.4132 20.1118 20.5068 19.3865 15.9319 19.3865Z" fill="#03045E"/>
<path opacity="0.4" d="M15.932 16.6227C19.0468 16.6227 21.5443 14.1107 21.5443 10.978C21.5443 7.84406 19.0468 5.33331 15.932 5.33331C12.8172 5.33331 10.3196 7.84406 10.3196 10.978C10.3196 14.1107 12.8172 16.6227 15.932 16.6227Z" fill="#03045E"/>
<path opacity="0.4" d="M28.1171 12.2923C28.923 9.12235 26.5603 6.27539 23.5517 6.27539C23.2246 6.27539 22.9118 6.31141 22.6062 6.37265C22.5656 6.38226 22.5202 6.40267 22.4964 6.43869C22.4689 6.48432 22.4892 6.54556 22.519 6.58518C23.4228 7.86037 23.9421 9.41293 23.9421 11.0796C23.9421 12.6765 23.4658 14.1655 22.6301 15.401C22.5441 15.5283 22.6205 15.7 22.7721 15.7264C22.9823 15.7636 23.1972 15.7829 23.4168 15.7889C25.6076 15.8465 27.5739 14.4284 28.1171 12.2923Z" fill="#03045E"/>
<path d="M30.4123 19.7559C30.0112 18.8962 29.0429 18.3066 27.5709 18.0172C26.8761 17.8467 24.9957 17.6066 23.2467 17.639C23.2204 17.6426 23.2061 17.6606 23.2037 17.6726C23.2001 17.6894 23.2073 17.7183 23.2419 17.7363C24.0502 18.1385 27.1745 19.888 26.7817 23.5779C26.765 23.7376 26.8928 23.8757 27.0516 23.8517C27.8204 23.7412 29.7986 23.3137 30.4123 21.9821C30.7514 21.2785 30.7514 20.4608 30.4123 19.7559Z" fill="#03045E"/>
<path opacity="0.4" d="M9.39311 6.37302C9.08867 6.31058 8.77468 6.27576 8.44756 6.27576C5.43901 6.27576 3.07634 9.12271 3.8834 12.2927C4.42541 14.4288 6.39172 15.8469 8.58247 15.7892C8.80214 15.7832 9.01823 15.7628 9.22716 15.7268C9.37878 15.7004 9.45519 15.5287 9.36923 15.4014C8.53352 14.1646 8.05717 12.6769 8.05717 11.0799C8.05717 9.41209 8.5777 7.85953 9.48146 6.58555C9.51011 6.54592 9.5316 6.48469 9.50295 6.43906C9.47907 6.40183 9.4349 6.38262 9.39311 6.37302Z" fill="#03045E"/>
<path d="M4.42866 18.0169C2.95662 18.3063 1.98958 18.8958 1.58844 19.7555C1.24819 20.4604 1.24819 21.2781 1.58844 21.9829C2.20209 23.3133 4.18033 23.742 4.94919 23.8513C5.10797 23.8753 5.23452 23.7384 5.21781 23.5775C4.82502 19.8888 7.94938 18.1393 8.75883 17.7371C8.79226 17.7179 8.79942 17.6903 8.79584 17.6723C8.79345 17.6603 8.78032 17.6422 8.75405 17.6398C7.00384 17.6062 5.12469 17.8464 4.42866 18.0169Z" fill="#03045E"/>
</svg>
